<svg width="1156" height="280" viewBox="0 0 1156 280" fill="none" xmlns="http://www.w3.org/2000/svg">
<circle cx="276" cy="140" r="125" stroke="#9FD3F6" stroke-width="30"/>
<line x1="241.213" y1="108" x2="273.033" y2="139.82" stroke="#9FD3F6" stroke-width="30" stroke-linecap="round"/>
<line x1="335.996" y1="79.5465" x2="274.713" y2="140.829" stroke="#9FD3F6" stroke-width="30" stroke-linecap="round"/>
<rect x="61.5" y="20.5" width="89" height="19" rx="9.5" fill="#9FD3F6" stroke="#9FD3F6"/>
<rect x="20.5" y="75.5" width="104" height="19" rx="9.5" fill="#9FD3F6" stroke="#9FD3F6"/>
<rect x="61.5" y="240.5" width="89" height="19" rx="9.5" fill="#9FD3F6" stroke="#9FD3F6"/>
<rect x="20.5" y="186.5" width="104" height="19" rx="9.5" fill="#9FD3F6" stroke="#9FD3F6"/>
<rect x="0.5" y="130.5" width="119" height="19" rx="9.5" fill="#9FD3F6" stroke="#9FD3F6"/>
<path d="M518.68 216.4C511.96 216.4 506.92 214.96 503.56 212.08C500.36 209.04 498.28 204.88 497.32 199.6C496.36 194.16 495.88 187.84 495.88 180.64V110.8H479.56C479.56 105.68 479.56 102 479.56 99.76C479.72 97.36 480.12 95.84 480.76 95.2C481.4 94.4 482.36 94 483.64 94H495.88V57.52C495.88 55.12 496.36 53.52 497.32 52.72C498.44 51.76 500.36 51.2 503.08 51.04C505.96 50.88 510.04 50.8 515.32 50.8V94H539.8C539.8 98.96 539.72 102.64 539.56 105.04C539.56 107.44 539.24 109.04 538.6 109.84C538.12 110.48 537.24 110.8 535.96 110.8H515.32V180.64C515.32 184 515.4 187.2 515.56 190.24C515.88 193.12 516.6 195.44 517.72 197.2C519 198.8 521.08 199.6 523.96 199.6C526.68 199.6 529.08 199.36 531.16 198.88C533.24 198.24 535.48 197.28 537.88 196C538.2 197.28 538.52 198.72 538.84 200.32C539.16 201.92 539.32 203.76 539.32 205.84C539.32 208.72 538.2 210.96 535.96 212.56C533.88 214 531.24 214.96 528.04 215.44C525 216.08 521.88 216.4 518.68 216.4ZM555.884 214V102.88C555.884 99.84 556.444 97.76 557.564 96.64C558.684 95.36 560.684 94.64 563.564 94.48C566.444 94.16 570.524 94 575.804 94V210.16C575.804 211.44 575.484 212.32 574.844 212.8C574.364 213.28 572.764 213.6 570.044 213.76C567.324 213.92 562.604 214 555.884 214ZM565.244 77.44C562.204 77.28 559.804 76.16 558.044 74.08C556.284 71.84 555.404 67.92 555.404 62.32C555.564 58 556.524 54.56 558.284 52C560.044 49.28 562.844 47.92 566.684 47.92C570.364 47.92 572.924 48.96 574.364 51.04C575.804 53.12 576.444 56.72 576.284 61.84C576.284 66.64 575.324 70.48 573.404 73.36C571.644 76.08 568.924 77.44 565.244 77.44ZM600.884 214V99.52C606.164 97.12 611.844 95.2 617.924 93.76C624.164 92.32 630.564 91.6 637.124 91.6C646.564 91.6 653.444 93.68 657.764 97.84C662.084 102 664.804 107.92 665.924 115.6C667.204 123.28 667.844 132.48 667.844 143.2V210.16C667.844 211.44 667.524 212.32 666.884 212.8C666.244 213.28 664.564 213.6 661.844 213.76C659.124 213.92 654.644 214 648.404 214V124.72C648.404 120.72 648.164 117.6 647.684 115.36C647.364 112.96 646.324 111.28 644.564 110.32C642.964 109.2 640.324 108.64 636.644 108.64C633.924 108.64 631.204 108.96 628.484 109.6C625.924 110.24 623.204 111.28 620.324 112.72V210.16C620.324 211.44 620.004 212.32 619.364 212.8C618.724 213.28 617.044 213.6 614.324 213.76C611.764 213.92 607.284 214 600.884 214ZM648.404 214V109.36C649.844 105.84 652.644 102.8 656.804 100.24C661.124 97.52 666.084 95.44 671.684 94C677.444 92.4 682.964 91.6 688.244 91.6C696.244 91.6 702.164 92.96 706.004 95.68C709.844 98.24 712.324 102.08 713.444 107.2C714.564 112.16 715.124 118.24 715.124 125.44V210.16C715.124 211.44 714.804 212.32 714.164 212.8C713.524 213.28 711.844 213.6 709.124 213.76C706.404 213.92 701.924 214 695.684 214V125.2C695.684 119.44 694.884 115.28 693.284 112.72C691.844 110.16 688.724 108.88 683.924 108.88C681.364 108.88 678.724 109.2 676.004 109.84C673.284 110.48 670.564 111.68 667.844 113.44V210.16C667.844 211.44 667.604 212.32 667.124 212.8C666.644 213.28 665.044 213.6 662.324 213.76C659.604 213.92 654.964 214 648.404 214ZM772.782 216.4C767.342 216.4 762.222 215.6 757.422 214C752.782 212.56 748.702 209.84 745.182 205.84C741.822 201.84 739.182 196.16 737.262 188.8C735.502 181.44 734.622 171.92 734.622 160.24C734.622 145.2 735.822 133.12 738.222 124C740.622 114.88 743.822 108 747.822 103.36C751.822 98.72 756.382 95.6 761.502 94C766.622 92.4 771.822 91.6 777.102 91.6C787.182 91.6 794.782 94.8 799.902 101.2C805.022 107.6 807.582 117.28 807.582 130.24C807.582 135.52 807.342 140.96 806.862 146.56C806.542 152.16 805.822 157.12 804.702 161.44C799.262 162.56 793.182 163.36 786.462 163.84C779.742 164.32 773.342 164.72 767.262 165.04C761.182 165.2 756.142 165.28 752.142 165.28C748.302 165.28 746.382 165.28 746.382 165.28L746.622 149.44C746.622 149.44 748.142 149.52 751.182 149.68C754.222 149.68 757.902 149.68 762.222 149.68C766.702 149.52 771.182 149.28 775.662 148.96C780.302 148.48 784.222 147.76 787.422 146.8C787.902 144.56 788.222 142.16 788.382 139.6C788.542 137.04 788.622 134.64 788.622 132.4C788.462 123.76 787.422 117.68 785.502 114.16C783.742 110.48 780.222 108.64 774.942 108.64C772.222 108.64 769.582 109.44 767.022 111.04C764.622 112.48 762.462 115.12 760.542 118.96C758.622 122.64 757.102 127.76 755.982 134.32C755.022 140.88 754.542 149.28 754.542 159.52C754.542 167.04 754.942 173.28 755.742 178.24C756.702 183.2 758.062 187.04 759.822 189.76C761.742 192.48 764.062 194.48 766.782 195.76C769.662 196.88 773.102 197.44 777.102 197.44C781.902 197.44 786.622 196.8 791.262 195.52C796.062 194.24 800.382 192.4 804.222 190C805.022 191.92 805.502 194.16 805.662 196.72C805.982 199.12 806.142 201.28 806.142 203.2C806.142 205.6 804.622 207.84 801.582 209.92C798.542 212 794.462 213.6 789.342 214.72C784.382 215.84 778.862 216.4 772.782 216.4ZM901.746 215.44C899.986 215.44 898.066 214.48 895.986 212.56C893.906 210.48 892.386 207.28 891.426 202.96L888.306 186.88C887.026 180.8 885.826 174.48 884.706 167.92C883.746 161.36 882.866 154.96 882.066 148.72C881.266 142.48 880.546 136.88 879.906 131.92C879.426 126.8 879.026 122.72 878.706 119.68C878.546 116.64 878.466 115.12 878.466 115.12L875.586 104.08C875.426 102.96 875.666 101.6 876.306 100C877.106 98.24 878.226 97.36 879.666 97.36H889.266L898.626 147.76C899.746 152.24 900.706 157.04 901.506 162.16C902.466 167.28 903.266 172.08 903.906 176.56C904.546 181.04 905.026 184.72 905.346 187.6C905.826 190.32 906.066 191.68 906.066 191.68H907.266C907.746 186.72 908.306 180.96 908.946 174.4C909.746 167.68 910.626 160.72 911.586 153.52C912.706 146.32 913.746 139.52 914.706 133.12L920.946 98.32C921.106 96.88 921.506 95.92 922.146 95.44C922.946 94.8 924.626 94.4 927.186 94.24C929.906 94.08 934.226 94 940.146 94C940.146 94 939.666 96.16 938.706 100.48C937.906 104.8 936.706 110.56 935.106 117.76C933.666 124.96 932.066 132.88 930.306 141.52C928.546 150.16 926.706 158.8 924.786 167.44C923.026 175.92 921.346 183.76 919.746 190.96C918.146 198.16 916.866 203.92 915.906 208.24C914.946 212.56 914.386 214.72 914.226 214.72C914.226 214.72 913.106 214.8 910.866 214.96C908.786 215.28 905.746 215.44 901.746 215.44ZM849.186 215.44C847.106 215.44 845.346 214.32 843.906 212.08C842.626 209.84 841.586 207.04 840.786 203.68C839.666 198.72 838.306 192.8 836.706 185.92C835.106 178.88 833.426 171.44 831.666 163.6C830.066 155.6 828.386 147.76 826.626 140.08C825.026 132.24 823.506 125.2 822.066 118.96C820.786 112.56 819.746 107.52 818.946 103.84C818.146 100 817.746 98.08 817.746 98.08C817.586 96.64 817.826 95.68 818.466 95.2C819.266 94.72 821.186 94.4 824.226 94.24C827.266 94.08 832.146 94 838.866 94L846.066 133.12C847.346 139.84 848.466 146.64 849.426 153.52C850.546 160.4 851.426 166.72 852.066 172.48C852.866 178.24 853.426 182.88 853.746 186.4C854.226 189.92 854.466 191.68 854.466 191.68H855.906C856.226 188.8 856.706 184.88 857.346 179.92C858.146 174.8 859.026 169.36 859.986 163.6C860.946 157.68 861.826 152.24 862.626 147.28L870.066 101.44C870.386 99.68 870.946 98.56 871.746 98.08C872.546 97.6 874.146 97.36 876.546 97.36H881.826C883.426 97.36 884.146 97.76 883.986 98.56C883.826 99.36 883.346 100.32 882.546 101.44C881.906 102.4 881.506 103.28 881.346 104.08L880.866 114.88C880.866 114.88 880.706 116.4 880.386 119.44C880.066 122.32 879.586 126.4 878.946 131.68C878.466 136.8 877.826 142.48 877.026 148.72C876.226 154.96 875.346 161.44 874.386 168.16C873.426 174.72 872.226 180.96 870.786 186.88L865.506 214.72C865.506 214.72 864.546 214.72 862.626 214.72C860.706 214.88 858.466 215.04 855.906 215.2C853.506 215.36 851.266 215.44 849.186 215.44ZM954.556 214V102.88C954.556 99.84 955.116 97.76 956.236 96.64C957.356 95.36 959.356 94.64 962.236 94.48C965.116 94.16 969.196 94 974.476 94V210.16C974.476 211.44 974.156 212.32 973.516 212.8C973.036 213.28 971.436 213.6 968.716 213.76C965.996 213.92 961.276 214 954.556 214ZM963.916 77.44C960.876 77.28 958.476 76.16 956.716 74.08C954.956 71.84 954.076 67.92 954.076 62.32C954.236 58 955.196 54.56 956.956 52C958.716 49.28 961.516 47.92 965.356 47.92C969.036 47.92 971.596 48.96 973.036 51.04C974.476 53.12 975.116 56.72 974.956 61.84C974.956 66.64 973.996 70.48 972.076 73.36C970.316 76.08 967.596 77.44 963.916 77.44ZM1021.95 216.4C1013.47 216.4 1006.43 215.44 1000.83 213.52C995.389 211.44 992.669 208.32 992.669 204.16C992.669 202.72 992.909 201.04 993.389 199.12C993.869 197.04 994.749 194.96 996.029 192.88C999.549 194.96 1003.23 196.48 1007.07 197.44C1011.07 198.4 1015.39 198.88 1020.03 198.88C1026.11 198.88 1030.83 197.68 1034.19 195.28C1037.71 192.72 1039.47 188.96 1039.47 184C1039.47 180.8 1038.75 177.68 1037.31 174.64C1036.03 171.6 1033.55 168.48 1029.87 165.28L1006.59 145.36C1001.15 140.88 997.469 136.56 995.549 132.4C993.789 128.08 992.909 123.92 992.909 119.92C992.909 114.32 994.269 109.44 996.989 105.28C999.869 100.96 1004.19 97.6 1009.95 95.2C1015.87 92.8 1023.23 91.6 1032.03 91.6C1040.35 91.6 1046.59 92.4 1050.75 94C1055.07 95.6 1058.03 97.44 1059.63 99.52C1061.39 101.44 1062.27 103.28 1062.27 105.04C1062.27 108.4 1060.83 111.68 1057.95 114.88C1054.43 112.64 1050.75 111.04 1046.91 110.08C1043.07 109.12 1038.91 108.64 1034.43 108.64C1028.67 108.64 1024.03 109.68 1020.51 111.76C1017.15 113.68 1015.47 116.48 1015.47 120.16C1015.47 122.24 1016.03 124.4 1017.15 126.64C1018.43 128.88 1021.07 131.68 1025.07 135.04L1047.39 153.04C1052.67 158 1056.35 162.72 1058.43 167.2C1060.51 171.68 1061.55 176.96 1061.55 183.04C1061.55 193.6 1058.03 201.84 1050.99 207.76C1043.95 213.52 1034.27 216.4 1021.95 216.4ZM1113.56 216.4C1108.12 216.4 1103 215.6 1098.2 214C1093.56 212.56 1089.48 209.84 1085.96 205.84C1082.6 201.84 1079.96 196.16 1078.04 188.8C1076.28 181.44 1075.4 171.92 1075.4 160.24C1075.4 145.2 1076.6 133.12 1079 124C1081.4 114.88 1084.6 108 1088.6 103.36C1092.6 98.72 1097.16 95.6 1102.28 94C1107.4 92.4 1112.6 91.6 1117.88 91.6C1127.96 91.6 1135.56 94.8 1140.68 101.2C1145.8 107.6 1148.36 117.28 1148.36 130.24C1148.36 135.52 1148.12 140.96 1147.64 146.56C1147.32 152.16 1146.6 157.12 1145.48 161.44C1140.04 162.56 1133.96 163.36 1127.24 163.84C1120.52 164.32 1114.12 164.72 1108.04 165.04C1101.96 165.2 1096.92 165.28 1092.92 165.28C1089.08 165.28 1087.16 165.28 1087.16 165.28L1087.4 149.44C1087.4 149.44 1088.92 149.52 1091.96 149.68C1095 149.68 1098.68 149.68 1103 149.68C1107.48 149.52 1111.96 149.28 1116.44 148.96C1121.08 148.48 1125 147.76 1128.2 146.8C1128.68 144.56 1129 142.16 1129.16 139.6C1129.32 137.04 1129.4 134.64 1129.4 132.4C1129.24 123.76 1128.2 117.68 1126.28 114.16C1124.52 110.48 1121 108.64 1115.72 108.64C1113 108.64 1110.36 109.44 1107.8 111.04C1105.4 112.48 1103.24 115.12 1101.32 118.96C1099.4 122.64 1097.88 127.76 1096.76 134.32C1095.8 140.88 1095.32 149.28 1095.32 159.52C1095.32 167.04 1095.72 173.28 1096.52 178.24C1097.48 183.2 1098.84 187.04 1100.6 189.76C1102.52 192.48 1104.84 194.48 1107.56 195.76C1110.44 196.88 1113.88 197.44 1117.88 197.44C1122.68 197.44 1127.4 196.8 1132.04 195.52C1136.84 194.24 1141.16 192.4 1145 190C1145.8 191.92 1146.28 194.16 1146.44 196.72C1146.76 199.12 1146.92 201.28 1146.92 203.2C1146.92 205.6 1145.4 207.84 1142.36 209.92C1139.32 212 1135.24 213.6 1130.12 214.72C1125.16 215.84 1119.64 216.4 1113.56 216.4Z" fill="#9FD3F6"/>
</svg>
