<svg width="48" height="51" viewBox="0 0 48 51" xmlns="http://www.w3.org/2000/svg">
  <!-- Remove fill="none" from the <svg> tag -->
  
  <path fill='currentColor' fill-rule="evenodd" clip-rule="evenodd"
  d="M44.9845 31.7772C42.9406 30.4375 41.5906 28.1264 41.5906 25.5C41.5906 22.8736 42.9406 20.5625 44.9845 19.2228C46.5873 18.1723 47.9505 16.2806 47.1266 14.5504C46.4547 13.1392 45.6568 11.7995 44.7477 10.5458C43.6474 9.0286 41.3999 9.26485 39.7268 10.1094C37.5441 11.2111 34.8662 11.2254 32.5906 9.91154C30.3953 8.64411 29.0832 6.43445 28.8701 4.08831C28.7004 2.21964 27.7078 0.185299 25.8357 0.0587769C25.259 0.0198021 24.6771 0 24.0906 0C23.1036 0 22.1296 0.0560799 21.1718 0.165226C19.3888 0.368404 18.4718 2.2906 18.312 4.07803C18.1018 6.42799 16.7891 8.64225 14.5906 9.91154C12.4703 11.1357 10.0008 11.2069 7.9079 10.3197C6.25783 9.62014 4.13356 9.52452 3.11309 10.9979C2.2188 12.289 1.44064 13.6667 0.793722 15.1159C0.079149 16.7166 1.19872 18.451 2.59889 19.5057C4.41584 20.8744 5.59059 23.05 5.59059 25.5C5.59059 27.95 4.41584 30.1256 2.59889 31.4943C1.19872 32.549 0.079149 34.2834 0.793722 35.8841C1.44063 37.3333 2.21879 38.711 3.11309 40.0021C4.13356 41.4755 6.25782 41.3799 7.90789 40.6803C10.0008 39.7931 12.4703 39.8643 14.5906 41.0885C16.7891 42.3577 18.1018 44.572 18.312 46.922C18.4718 48.7094 19.3888 50.6316 21.1718 50.8348C22.1296 50.9439 23.1035 51 24.0906 51C24.6771 51 25.259 50.9802 25.8357 50.9412C27.7078 50.8147 28.7004 48.7804 28.8701 46.9117C29.0832 44.5656 30.3953 42.3559 32.5906 41.0885C34.8662 39.7746 37.5441 39.7889 39.7268 40.8906C41.3999 41.7351 43.6474 41.9714 44.7477 40.4542C45.6568 39.2005 46.4547 37.8608 47.1266 36.4496C47.9505 34.7194 46.5873 32.8277 44.9845 31.7772ZM24 35C29.5228 35 34 30.5228 34 25C34 19.4772 29.5228 15 24 15C18.4772 15 14 19.4772 14 25C14 30.5228 18.4772 35 24 35Z"
  />

</svg>
